<svg width="64" height="64" viewBox="0 0 64 64" fill="none" xmlns="http://www.w3.org/2000/svg">
<circle cx="32" cy="32" r="31.5" fill="black" stroke="#FFF622"/>
<path d="M6.53019 28C6.80999 28 7.0818 28.048 7.34561 28.1439C7.61742 28.2398 7.87723 28.3797 8.12505 28.5636C8.16502 28.6036 8.20899 28.6435 8.25696 28.6835C8.29693 28.6435 8.3409 28.6036 8.38887 28.5636C8.63669 28.3797 8.89251 28.2398 9.15632 28.1439C9.42812 28.048 9.69993 28 9.97173 28C10.2515 28 10.5233 28.048 10.7872 28.1439C11.059 28.2398 11.3148 28.3837 11.5546 28.5756C11.8024 28.7595 12.0183 29.0073 12.2021 29.3191C12.394 29.6308 12.4899 30.0026 12.4899 30.4343V34.7632C12.442 35.2428 12.1782 35.5026 11.6985 35.5426C11.4747 35.5426 11.2788 35.4707 11.1109 35.3268C10.951 35.1749 10.8711 34.987 10.8711 34.7632V30.5302C10.8711 30.3383 10.8351 30.1784 10.7632 30.0505C10.6912 29.9146 10.6113 29.8107 10.5233 29.7388C10.4354 29.6588 10.3435 29.6029 10.2475 29.5709C10.1516 29.5309 10.0557 29.5109 9.95974 29.5109C9.86381 29.5109 9.76788 29.5309 9.67195 29.5709C9.58401 29.6029 9.49607 29.6588 9.40814 29.7388C9.3202 29.8107 9.24026 29.9146 9.16831 30.0505C9.09636 30.1784 9.05639 30.3383 9.04839 30.5302V34.7632C9.00043 35.2428 8.73662 35.5026 8.25696 35.5426C8.03312 35.5426 7.83726 35.4707 7.66938 35.3268C7.50949 35.1749 7.42955 34.987 7.42955 34.7632V30.5302C7.42955 30.3383 7.39358 30.1784 7.32163 30.0505C7.24968 29.9146 7.16974 29.8107 7.0818 29.7388C6.99386 29.6588 6.90193 29.6029 6.806 29.5709C6.71006 29.5309 6.61413 29.5109 6.5182 29.5109C6.42227 29.5109 6.32634 29.5309 6.23041 29.5709C6.14247 29.6029 6.05453 29.6588 5.9666 29.7388C5.87866 29.8107 5.79872 29.9146 5.72677 30.0505C5.65482 30.1784 5.61485 30.3383 5.60685 30.5302V34.7632C5.56688 35.2428 5.30707 35.5026 4.82741 35.5426C4.60357 35.5426 4.40771 35.4707 4.23983 35.3268C4.07994 35.1749 4 34.987 4 34.7632V30.4343C4.01599 30.0026 4.11592 29.6308 4.29979 29.3191C4.48365 29.0073 4.6995 28.7595 4.94732 28.5756C5.19515 28.3837 5.45096 28.2398 5.71478 28.1439C5.98658 28.048 6.25839 28 6.53019 28Z" fill="white"/>
<path d="M36.6767 34.7632C36.3089 34.2116 35.9412 33.4881 35.5734 32.5927L34.2544 29.1872C34.2144 29.0992 34.1904 29.0033 34.1824 28.8994C34.1665 28.6755 34.2304 28.4837 34.3743 28.3238C34.5262 28.1639 34.7181 28.0839 34.9499 28.0839C35.1977 28.0839 35.3816 28.1399 35.5015 28.2518C35.6294 28.3557 35.7333 28.4916 35.8133 28.6595L36.9525 31.7773C37.0804 32.1051 37.2043 32.4168 37.3242 32.7126C37.4521 33.0004 37.592 33.2642 37.7439 33.5041C37.8958 33.7439 38.0677 33.8718 38.2595 33.8878C38.4434 33.8718 38.6073 33.7439 38.7512 33.5041C38.9111 33.2642 39.051 33.0004 39.1709 32.7126C39.2988 32.4168 39.4267 32.1051 39.5546 31.7773L40.6698 28.6595C40.7498 28.4916 40.8497 28.3557 40.9696 28.2518C41.0975 28.1399 41.2934 28.0839 41.5572 28.0839C41.789 28.0839 41.9769 28.1639 42.1208 28.3238C42.2727 28.4837 42.3406 28.6755 42.3246 28.8994C42.3166 29.0033 42.2926 29.0992 42.2527 29.1872L40.9336 32.5927C40.5659 33.5041 40.1981 34.2315 39.8304 34.7752C39.4707 35.3108 38.947 35.5826 38.2595 35.5906C37.564 35.5826 37.0364 35.3068 36.6767 34.7632Z" fill="white"/>
<path d="M43.3079 34.5953C43.3079 34.3714 43.3839 34.1836 43.5358 34.0317C43.6956 33.8718 43.8875 33.7919 44.1113 33.7919H46.4137V29.9306H44.1113C43.8875 29.9306 43.6996 29.8507 43.5478 29.6908C43.3879 29.5389 43.3079 29.351 43.3079 29.1272C43.3079 28.9034 43.3839 28.7155 43.5358 28.5636C43.6956 28.4037 43.8875 28.3238 44.1113 28.3238H50.3229C50.5468 28.3238 50.7386 28.3997 50.8985 28.5516C51.0504 28.7115 51.1263 28.9034 51.1263 29.1272C51.1263 29.351 51.0464 29.5429 50.8865 29.7028C50.7346 29.8547 50.5468 29.9306 50.3229 29.9306H48.0325V33.7919H50.3229C50.5468 33.7919 50.7386 33.8678 50.8985 34.0197C51.0504 34.1796 51.1263 34.3714 51.1263 34.5953C51.1263 34.8191 51.0464 35.011 50.8865 35.1709C50.7346 35.3228 50.5468 35.3987 50.3229 35.3987H44.1113C43.8875 35.3987 43.6996 35.3188 43.5478 35.1589C43.3879 35.007 43.3079 34.8191 43.3079 34.5953Z" fill="white"/>
<path d="M54.5919 28.3238H59.2206C59.4444 28.3318 59.6283 28.4157 59.7722 28.5756C59.9241 28.7355 60 28.9273 60 29.1512C59.96 29.6308 59.7002 29.8906 59.2206 29.9306H54.9996C54.6958 29.9466 54.444 30.0625 54.2441 30.2784C54.0443 30.4942 53.8964 30.742 53.8004 31.0218C53.7125 31.2936 53.6685 31.5734 53.6685 31.8612C53.6685 32.149 53.7125 32.4328 53.8004 32.7126C53.8964 32.9844 54.0443 33.2283 54.2441 33.4441C54.444 33.66 54.6958 33.7759 54.9996 33.7919H59.2206C59.4444 33.7999 59.6283 33.8838 59.7722 34.0437C59.9241 34.2036 60 34.3954 60 34.6193C59.992 34.8351 59.9121 35.019 59.7602 35.1709C59.6163 35.3148 59.4364 35.3907 59.2206 35.3987H54.5919C54.0323 35.3667 53.5686 35.1549 53.2009 34.7632C52.8411 34.3635 52.5813 33.9118 52.4214 33.4081C52.2695 32.9045 52.1936 32.3889 52.1936 31.8612C52.1936 31.3336 52.2735 30.818 52.4334 30.3143C52.5933 29.8107 52.8531 29.363 53.2128 28.9713C53.5726 28.5716 54.0323 28.3557 54.5919 28.3238ZM59.976 31.8133C59.976 32.0371 59.8961 32.225 59.7362 32.3769C59.5843 32.5368 59.3964 32.6167 59.1726 32.6167H55.5512C55.3273 32.6167 55.1355 32.5408 54.9756 32.3889C54.8237 32.229 54.7478 32.0371 54.7478 31.8133C54.7478 31.5894 54.8237 31.3976 54.9756 31.2377C55.1355 31.0858 55.3273 31.0099 55.5512 31.0099H59.1726C59.3964 31.0099 59.5843 31.0898 59.7362 31.2497C59.8961 31.4016 59.976 31.5894 59.976 31.8133Z" fill="white"/>
<path fill-rule="evenodd" clip-rule="evenodd" d="M20.4403 28.3238C20.848 28.3318 21.2117 28.4597 21.5315 28.7075C21.8512 28.9553 22.1071 29.2511 22.2989 29.5949C22.3467 29.677 22.3853 29.739 22.4177 29.7911L22.4179 29.7914C22.5211 29.9572 22.5617 30.0224 22.6347 30.3143C22.9956 30.3143 23.158 30.3143 23.4738 30.3143C21.9512 30.7384 22.5128 31.6171 23.4738 31.8612C23.2822 31.8612 23.0998 31.8529 22.8865 31.8612C22.8865 32.3889 22.8026 32.9085 22.6347 33.4201C22.4748 33.9238 22.207 34.3714 21.8313 34.7632C21.4635 35.1549 20.9999 35.3667 20.4403 35.3987H16.2552C15.6956 35.3747 15.228 35.1669 14.8522 34.7752C14.4765 34.3834 14.2087 33.9318 14.0488 33.4201C13.8969 32.9085 13.821 32.3889 13.821 31.8612C13.821 31.3336 13.9009 30.818 14.0608 30.3143C14.2207 29.8027 14.4845 29.351 14.8522 28.9593C15.228 28.5596 15.6956 28.3478 16.2552 28.3238H20.4403ZM20.0325 33.7919C20.3363 33.7759 20.5882 33.664 20.788 33.4561C20.9959 33.2403 21.1438 32.9924 21.2317 32.7126C21.3196 32.4328 21.3636 32.149 21.3636 31.8612C21.3636 31.5734 21.3156 31.2936 21.2197 31.0218C21.1318 30.742 20.9879 30.4942 20.788 30.2784C20.5882 30.0625 20.3363 29.9466 20.0325 29.9306H16.627C16.3232 29.9466 16.0714 30.0625 15.8715 30.2784C15.6717 30.4942 15.5238 30.742 15.4278 31.0218C15.3399 31.2936 15.2959 31.5734 15.2959 31.8612C15.2959 32.149 15.3399 32.4328 15.4278 32.7126C15.5158 32.9924 15.6597 33.2403 15.8595 33.4561C16.0674 33.664 16.3232 33.7759 16.627 33.7919H20.0325Z" fill="#2238FF"/>
<path fill-rule="evenodd" clip-rule="evenodd" d="M31.7242 28.7075C31.4044 28.4597 31.0407 28.3318 30.633 28.3238H26.448C25.8884 28.3478 25.4207 28.5596 25.045 28.9593C24.6772 29.351 24.4134 29.8027 24.2535 30.3143C23.9849 30.3143 23.6377 30.3143 23.4738 30.3143C24.8456 30.5854 24.8064 31.6115 23.4738 31.8612C23.57 31.8612 23.8061 31.8612 24.0137 31.8612C24.0137 32.3889 24.0897 32.9085 24.2415 33.4201C24.4014 33.9318 24.6692 34.3834 25.045 34.7752C25.4207 35.1669 25.8884 35.3747 26.448 35.3987H30.633C31.1926 35.3667 31.6562 35.1549 32.024 34.7632C32.3997 34.3714 32.6675 33.9238 32.8274 33.4201C32.9953 32.9085 33.0792 32.3889 33.0792 31.8612C33.0792 31.4615 33.0313 31.0698 32.9353 30.6861C32.8394 30.3024 32.6915 29.9386 32.4916 29.5949C32.2998 29.2511 32.044 28.9553 31.7242 28.7075ZM30.9807 33.4561C30.7809 33.664 30.5291 33.7759 30.2253 33.7919H26.8197C26.5159 33.7759 26.2601 33.664 26.0522 33.4561C25.8524 33.2403 25.7085 32.9924 25.6206 32.7126C25.5326 32.4328 25.4887 32.149 25.4887 31.8612C25.4887 31.5734 25.5326 31.2936 25.6206 31.0218C25.7165 30.742 25.8644 30.4942 26.0642 30.2784C26.2641 30.0625 26.5159 29.9466 26.8197 29.9306H30.2253C30.5291 29.9466 30.7809 30.0625 30.9807 30.2784C31.1806 30.4942 31.3245 30.742 31.4124 31.0218C31.5084 31.2936 31.5563 31.5734 31.5563 31.8612C31.5563 32.149 31.5123 32.4328 31.4244 32.7126C31.3365 32.9924 31.1886 33.2403 30.9807 33.4561Z" fill="#FF0000"/>
<path fill-rule="evenodd" clip-rule="evenodd" d="M23.4738 31.8612C22.5128 31.6171 21.9512 30.7384 23.4738 30.3143V31.8612Z" fill="#2238FF"/>
<path d="M23.4738 30.3143C24.8456 30.5854 24.8064 31.6115 23.4738 31.8612V30.3143Z" fill="#FF0000"/>
</svg>
